<svg width="32" height="32" viewBox="0 0 32 32" fill="none" xmlns="http://www.w3.org/2000/svg">
  <defs>
    <!-- Chat theme gradients -->
    <linearGradient id="chatBg" x1="0%" y1="0%" x2="100%" y2="100%">
      <stop offset="0%" style="stop-color:#1e293b;stop-opacity:1" />
      <stop offset="50%" style="stop-color:#0f172a;stop-opacity:1" />
      <stop offset="100%" style="stop-color:#020617;stop-opacity:1" />
    </linearGradient>
    <linearGradient id="chatBubbleGradient" x1="0%" y1="0%" x2="100%" y2="100%">
      <stop offset="0%" style="stop-color:#10b981;stop-opacity:1" />
      <stop offset="100%" style="stop-color:#059669;stop-opacity:1" />
    </linearGradient>
    <linearGradient id="lockGradient" x1="0%" y1="0%" x2="100%" y2="100%">
      <stop offset="0%" style="stop-color:#f59e0b;stop-opacity:1" />
      <stop offset="100%" style="stop-color:#d97706;stop-opacity:1" />
    </linearGradient>
    <radialGradient id="glowEffect" cx="50%" cy="50%" r="50%">
      <stop offset="0%" style="stop-color:#10b981;stop-opacity:0.3" />
      <stop offset="100%" style="stop-color:#10b981;stop-opacity:0" />
    </radialGradient>
  </defs>
  
  <!-- Background with chat theme -->
  <rect width="32" height="32" rx="6" fill="url(#chatBg)"/>
  
  <!-- Glow effect -->
  <circle cx="16" cy="16" r="14" fill="url(#glowEffect)"/>
  
  <!-- Main chat bubble -->
  <path d="M8 12 C8 10 9 9 11 9 L21 9 C23 9 24 10 24 12 L24 18 C24 20 23 21 21 21 L11 21 C9 21 8 20 8 18 Z" 
        fill="url(#chatBubbleGradient)" 
        stroke="#047857" 
        stroke-width="0.5"/>
  
  <!-- Chat bubble tail -->
  <path d="M11 21 L8 24 L11 22 Z" 
        fill="url(#chatBubbleGradient)" 
        stroke="#047857" 
        stroke-width="0.5"/>
  
  <!-- Lock icon in center -->
  <rect x="14" y="13" width="4" height="3" rx="0.5" fill="url(#lockGradient)"/>
  
  <!-- Lock shackle -->
  <path d="M15 13 L15 10.5 C15 10 15.5 9.5 16 9.5 C16.5 9.5 17 10 17 10.5 L17 13" 
        stroke="url(#lockGradient)" 
        stroke-width="0.8" 
        fill="none"/>
  
  <!-- Encryption dots representing secure messages -->
  <circle cx="12" cy="16" r="0.8" fill="#10b981" opacity="0.8"/>
  <circle cx="16" cy="17" r="0.6" fill="#059669" opacity="0.9"/>
  <circle cx="20" cy="16" r="0.7" fill="#047857" opacity="1"/>
  
  <!-- Security lines -->
  <path d="M6 10 L8 10" stroke="#10b981" stroke-width="0.5" opacity="0.6"/>
  <path d="M24 10 L26 10" stroke="#10b981" stroke-width="0.5" opacity="0.6"/>
  <path d="M6 20 L8 20" stroke="#10b981" stroke-width="0.5" opacity="0.6"/>
  <path d="M24 20 L26 20" stroke="#10b981" stroke-width="0.5" opacity="0.6"/>
</svg>
