<svg width="32" height="32" viewBox="0 0 32 32" fill="none" xmlns="http://www.w3.org/2000/svg">
  <defs>
    <!-- Modern chat theme gradients -->
    <linearGradient id="chatBg" x1="0%" y1="0%" x2="100%" y2="100%">
      <stop offset="0%" style="stop-color:#1e293b;stop-opacity:1" />
      <stop offset="50%" style="stop-color:#0f172a;stop-opacity:1" />
      <stop offset="100%" style="stop-color:#020617;stop-opacity:1" />
    </linearGradient>
    <linearGradient id="messageGradient" x1="0%" y1="0%" x2="100%" y2="100%">
      <stop offset="0%" style="stop-color:#3b82f6;stop-opacity:1" />
      <stop offset="100%" style="stop-color:#1d4ed8;stop-opacity:1" />
    </linearGradient>
    <linearGradient id="lockGradient" x1="0%" y1="0%" x2="100%" y2="100%">
      <stop offset="0%" style="stop-color:#8b5cf6;stop-opacity:1" />
      <stop offset="100%" style="stop-color:#7c3aed;stop-opacity:1" />
    </linearGradient>
    <radialGradient id="glowEffect" cx="50%" cy="50%" r="50%">
      <stop offset="0%" style="stop-color:#3b82f6;stop-opacity:0.2" />
      <stop offset="100%" style="stop-color:#3b82f6;stop-opacity:0" />
    </radialGradient>
  </defs>
  
  <!-- Background -->
  <rect width="32" height="32" rx="8" fill="url(#chatBg)"/>
  
  <!-- Glow effect -->
  <circle cx="16" cy="16" r="14" fill="url(#glowEffect)"/>
  
  <!-- Main message bubble -->
  <path d="M6 10 C6 8 7 7 9 7 L23 7 C25 7 26 8 26 10 L26 20 C26 22 25 23 23 23 L9 23 C7 23 6 22 6 20 Z" 
        fill="url(#messageGradient)" 
        stroke="#1e40af" 
        stroke-width="0.5"/>
  
  <!-- Message bubble tail -->
  <path d="M9 23 L6 26 L9 24 Z" 
        fill="url(#messageGradient)" 
        stroke="#1e40af" 
        stroke-width="0.5"/>
  
  <!-- Lock icon in center -->
  <rect x="13" y="13" width="6" height="4" rx="1" fill="url(#lockGradient)"/>
  
  <!-- Lock shackle -->
  <path d="M14 13 L14 10 C14 9 15 8 16 8 C17 8 18 9 18 10 L18 13" 
        stroke="url(#lockGradient)" 
        stroke-width="1" 
        fill="none"/>
  
  <!-- Message dots -->
  <circle cx="11" cy="15" r="1" fill="#60a5fa" opacity="0.8"/>
  <circle cx="16" cy="16" r="0.8" fill="#3b82f6" opacity="0.9"/>
  <circle cx="21" cy="15" r="0.6" fill="#1d4ed8" opacity="1"/>
</svg>
